<svg xmlns="http://www.w3.org/2000/svg" viewBox="0 0 400 300" role="img" aria-label="Madewell hang tag: size M, 100% Tencel">
  <defs>
    <radialGradient id="bgT" cx="50%" cy="35%" r="80%">
      <stop offset="0%" stop-color="#f6f3ea"/><stop offset="100%" stop-color="#e4e1d2"/>
    </radialGradient>
    <linearGradient id="card" x1="0%" y1="0%" x2="60%" y2="100%">
      <stop offset="0%" stop-color="#fffdf6"/><stop offset="100%" stop-color="#f0ead9"/>
    </linearGradient>
    <linearGradient id="fabT" x1="0%" y1="0%" x2="100%" y2="60%">
      <stop offset="0%" stop-color="#b2c0a1"/><stop offset="100%" stop-color="#93a380"/>
    </linearGradient>
  </defs>
  <rect width="400" height="300" fill="url(#bgT)"/>
  <path d="M0 300 L0 142 Q90 104 200 126 Q310 148 400 112 L400 300 Z" fill="url(#fabT)"/>
  <path d="M30 170 Q120 150 210 168" stroke="#86966f" stroke-width="1.6" fill="none" opacity=".5"/>
  <path d="M180 190 Q270 172 370 186" stroke="#86966f" stroke-width="1.6" fill="none" opacity=".45"/>
  <path d="M60 220 Q160 204 260 218" stroke="#c2cdb0" stroke-width="1.4" fill="none" opacity=".5"/>
  <ellipse cx="208" cy="244" rx="98" ry="13" fill="#4c543f" opacity=".22"/>
  <path d="M118 34 Q168 78 199 96" stroke="#cbbf9f" stroke-width="3.4" fill="none" stroke-linecap="round"/>
  <path d="M122 30 Q170 72 201 92" stroke="#b9ac8a" stroke-width="1.6" fill="none" opacity=".7"/>
  <g transform="rotate(-8 205 160)">
    <rect x="130" y="75" width="150" height="172" rx="13" fill="url(#card)" stroke="#cfc4a8" stroke-width="2"/>
    <rect x="136" y="81" width="138" height="160" rx="9" fill="none" stroke="#e7decb" stroke-width="1.2"/>
    <circle cx="205" cy="99" r="8" fill="#e9e2cf" stroke="#bdb194" stroke-width="2.6"/>
    <circle cx="205" cy="99" r="3.6" fill="#f7f4ea"/>
    <text x="205" y="146" text-anchor="middle" font-family="Georgia,'Times New Roman',serif" font-style="italic" font-size="26" fill="#3c452f">madewell</text>
    <line x1="154" y1="162" x2="256" y2="162" stroke="#ded2b6" stroke-width="1.6"/>
    <text x="205" y="186" text-anchor="middle" font-family="Arial,Helvetica,sans-serif" font-size="15" letter-spacing="3" fill="#5c684a">SIZE M</text>
    <text x="205" y="206" text-anchor="middle" font-family="Arial,Helvetica,sans-serif" font-size="10" letter-spacing="1.5" fill="#8d927e">100% TENCEL</text>
    <g fill="#5a5444" transform="translate(160,216)">
      <rect x="0" y="0" width="2.6" height="18"/><rect x="5" y="0" width="1.4" height="18"/><rect x="9" y="0" width="3.2" height="18"/>
      <rect x="15" y="0" width="1.4" height="18"/><rect x="19" y="0" width="2.2" height="18"/><rect x="24" y="0" width="4" height="18"/>
      <rect x="31" y="0" width="1.4" height="18"/><rect x="35" y="0" width="2.6" height="18"/><rect x="40" y="0" width="1.4" height="18"/>
      <rect x="45" y="0" width="3.2" height="18"/><rect x="51" y="0" width="1.4" height="18"/><rect x="55" y="0" width="2.2" height="18"/>
      <rect x="60" y="0" width="4" height="18"/><rect x="67" y="0" width="1.4" height="18"/><rect x="71" y="0" width="2.6" height="18"/>
      <rect x="76" y="0" width="1.4" height="18"/><rect x="81" y="0" width="3.2" height="18"/><rect x="87" y="0" width="2.2" height="18"/>
    </g>
  </g>
</svg>
