<svg xmlns="http://www.w3.org/2000/svg" viewBox="0 0 200 200" role="img" aria-label="Sage green blouse, front">
  <rect width="200" height="200" fill="#d6dfce"/>
  <ellipse cx="100" cy="181" rx="58" ry="9" fill="#93a382" opacity=".33"/>
  <!-- body + sleeves -->
  <path d="M76 46 C84 53 116 53 124 46 L151 63 L138 90 L129 81 L131 159 C100 171 69 159 69 159 L71 81 L62 90 L49 63 Z"
        fill="#aab89c" stroke="#8c9c79" stroke-width="2.6" stroke-linejoin="round"/>
  <!-- collar -->
  <path d="M83 48 L100 67 L117 48 L108 43 C103 48 97 48 92 43 Z" fill="#9aab85" stroke="#8c9c79" stroke-width="1.4" stroke-linejoin="round"/>
  <!-- button placket -->
  <path d="M100 65 L100 161" stroke="#8c9c79" stroke-width="2"/>
  <circle cx="100" cy="84" r="2.5" fill="#76876f"/>
  <circle cx="100" cy="100" r="2.5" fill="#76876f"/>
  <circle cx="100" cy="116" r="2.5" fill="#76876f"/>
  <circle cx="100" cy="132" r="2.5" fill="#76876f"/>
  <circle cx="100" cy="148" r="2.5" fill="#76876f"/>
  <!-- soft drape folds -->
  <path d="M86 92 C90 116 90 138 88 158" stroke="#93a382" stroke-width="1.5" fill="none" opacity=".6"/>
  <path d="M114 92 C110 116 110 138 112 158" stroke="#93a382" stroke-width="1.5" fill="none" opacity=".6"/>
  <!-- cuff hints -->
  <path d="M55 78 L67 84" stroke="#8c9c79" stroke-width="1.6" opacity=".7"/>
  <path d="M145 78 L133 84" stroke="#8c9c79" stroke-width="1.6" opacity=".7"/>
</svg>
